<svg width="551" height="208" viewBox="0 0 551 208" fill="none" xmlns="http://www.w3.org/2000/svg">
<mask id="path-1-outside-1_1217_10233" maskUnits="userSpaceOnUse" x="279.885" y="69.5762" width="109" height="111" fill="black">
<rect fill="white" x="279.885" y="69.5762" width="109" height="111"/>
<path d="M332.083 70.6551C349.275 69.7043 365.14 77.507 372.697 85.4314C383.818 97.0968 387.045 110.736 387.297 126.109C387.319 127.429 386.229 128.49 384.908 128.467C373.555 128.262 361.583 128.445 350.265 128.447L307.905 128.465C306.801 128.465 305.905 127.57 305.905 126.465V119.594C305.905 118.49 306.799 117.595 307.903 117.594L336.838 117.577C348.165 117.58 359.925 117.749 371.283 117.567C372.702 117.544 373.775 116.274 373.525 114.877C371.683 104.606 368.044 95.6815 359.126 88.9851C352.116 83.7199 340.804 80.8629 332.083 81.408C313.394 82.9718 300.84 92.5256 295.715 110.931C295.354 112.226 294.953 113.619 294.64 115.005C294.623 115.078 294.611 115.152 294.602 115.224C293.71 119.37 293.515 128.027 294.273 132.403C294.497 134.326 294.891 136.088 295.382 138.307C298.77 153.609 309.946 165.29 325.659 167.919C337.77 169.944 353.609 168.472 363.49 160.358C375.746 148.662 364.237 148.045 381.631 148.175C383.146 148.186 384.279 149.611 383.817 151.054C378.104 168.869 360.839 177.621 342.903 179.05C326.628 180.346 311.07 177.976 298.336 166.983C276.578 148.2 275.343 109.04 293.643 87.6004C303.506 76.0586 316.035 71.5428 332.083 70.6551Z"/>
</mask>
<path d="M332.083 70.6551C349.275 69.7043 365.14 77.507 372.697 85.4314C383.818 97.0968 387.045 110.736 387.297 126.109C387.319 127.429 386.229 128.49 384.908 128.467C373.555 128.262 361.583 128.445 350.265 128.447L307.905 128.465C306.801 128.465 305.905 127.57 305.905 126.465V119.594C305.905 118.49 306.799 117.595 307.903 117.594L336.838 117.577C348.165 117.58 359.925 117.749 371.283 117.567C372.702 117.544 373.775 116.274 373.525 114.877C371.683 104.606 368.044 95.6815 359.126 88.9851C352.116 83.7199 340.804 80.8629 332.083 81.408C313.394 82.9718 300.84 92.5256 295.715 110.931C295.354 112.226 294.953 113.619 294.64 115.005C294.623 115.078 294.611 115.152 294.602 115.224C293.71 119.37 293.515 128.027 294.273 132.403C294.497 134.326 294.891 136.088 295.382 138.307C298.77 153.609 309.946 165.29 325.659 167.919C337.77 169.944 353.609 168.472 363.49 160.358C375.746 148.662 364.237 148.045 381.631 148.175C383.146 148.186 384.279 149.611 383.817 151.054C378.104 168.869 360.839 177.621 342.903 179.05C326.628 180.346 311.07 177.976 298.336 166.983C276.578 148.2 275.343 109.04 293.643 87.6004C303.506 76.0586 316.035 71.5428 332.083 70.6551Z" fill="#1C1D1F"/>
<path d="M332.083 70.6551L332.028 69.6566L332.028 69.6566L332.083 70.6551ZM372.697 85.4314L373.42 84.7414L373.42 84.7413L372.697 85.4314ZM387.297 126.109L388.297 126.093V126.093L387.297 126.109ZM384.908 128.467L384.926 127.467L384.908 128.467ZM350.265 128.447L350.265 127.447H350.265L350.265 128.447ZM336.838 117.577L336.838 116.577H336.838L336.838 117.577ZM371.283 117.567L371.299 118.567H371.299L371.283 117.567ZM373.525 114.877L374.509 114.7L374.509 114.7L373.525 114.877ZM359.126 88.9851L358.526 89.7847L358.526 89.7848L359.126 88.9851ZM332.083 81.408L332.021 80.4099L332.01 80.4106L332 80.4115L332.083 81.408ZM295.715 110.931L296.678 111.2L296.678 111.2L295.715 110.931ZM294.64 115.005L293.665 114.784L293.665 114.784L294.64 115.005ZM294.602 115.224L295.579 115.435L295.589 115.39L295.595 115.344L294.602 115.224ZM294.273 132.403L295.266 132.287L295.263 132.26L295.258 132.233L294.273 132.403ZM295.382 138.307L296.358 138.091L296.358 138.091L295.382 138.307ZM325.659 167.919L325.494 168.905H325.494L325.659 167.919ZM363.49 160.358L364.124 161.131L364.153 161.107L364.18 161.082L363.49 160.358ZM381.631 148.175L381.639 147.175V147.175L381.631 148.175ZM383.817 151.054L384.769 151.359V151.359L383.817 151.054ZM342.903 179.05L342.823 178.053H342.823L342.903 179.05ZM298.336 166.983L297.683 167.74H297.683L298.336 166.983ZM293.643 87.6004L292.883 86.9507L292.882 86.9512L293.643 87.6004ZM307.903 117.594L307.903 116.594L307.903 117.594ZM307.905 128.465L307.905 127.465L307.905 128.465ZM332.083 70.6551L332.139 71.6535C349.033 70.7192 364.615 78.4054 371.973 86.1215L372.697 85.4314L373.42 84.7413C365.665 76.6086 349.517 68.6894 332.028 69.6566L332.083 70.6551ZM372.697 85.4314L371.973 86.1215C382.857 97.5374 386.047 110.891 386.297 126.126L387.297 126.109L388.297 126.093C388.043 110.58 384.78 96.6561 373.42 84.7414L372.697 85.4314ZM387.297 126.109L386.297 126.126C386.309 126.865 385.696 127.481 384.926 127.467L384.908 128.467L384.89 129.466C386.761 129.5 388.328 127.994 388.297 126.093L387.297 126.109ZM384.908 128.467L384.926 127.467C373.561 127.262 361.561 127.445 350.265 127.447L350.265 128.447L350.265 129.447C361.605 129.445 373.548 129.262 384.89 129.466L384.908 128.467ZM350.265 128.447L350.265 127.447L307.905 127.465L307.905 128.465L307.906 129.465L350.265 129.447L350.265 128.447ZM305.905 126.465H306.905V119.594H305.905H304.905V126.465H305.905ZM307.903 117.594L307.904 118.594L336.839 118.577L336.838 117.577L336.838 116.577L307.903 116.594L307.903 117.594ZM336.838 117.577L336.838 118.577C348.145 118.58 359.931 118.749 371.299 118.567L371.283 117.567L371.267 116.567C359.919 116.749 348.185 116.58 336.838 116.577L336.838 117.577ZM371.283 117.567L371.299 118.567C373.317 118.534 374.871 116.721 374.509 114.7L373.525 114.877L372.54 115.053C372.679 115.827 372.086 116.554 371.266 116.567L371.283 117.567ZM373.525 114.877L374.509 114.7C372.644 104.295 368.924 95.0912 359.727 88.1855L359.126 88.9851L358.526 89.7848C367.165 96.2718 370.723 104.917 372.54 115.053L373.525 114.877ZM359.126 88.9851L359.727 88.1856C352.499 82.7565 340.942 79.8524 332.021 80.4099L332.083 81.408L332.146 82.4061C340.666 81.8735 351.734 84.6833 358.526 89.7847L359.126 88.9851ZM332.083 81.408L332 80.4115C322.505 81.206 314.492 84.0377 308.188 89.0726C301.881 94.1104 297.36 101.295 294.752 110.663L295.715 110.931L296.678 111.2C299.195 102.162 303.513 95.3668 309.436 90.6353C315.364 85.9009 322.972 83.1738 332.167 82.4045L332.083 81.408ZM295.715 110.931L294.752 110.663C294.395 111.944 293.985 113.368 293.665 114.784L294.64 115.005L295.615 115.225C295.922 113.87 296.314 112.507 296.678 111.2L295.715 110.931ZM294.64 115.005L293.665 114.784C293.64 114.891 293.622 114.998 293.609 115.105L294.602 115.224L295.595 115.344C295.599 115.306 295.606 115.266 295.615 115.225L294.64 115.005ZM294.602 115.224L293.624 115.014C293.158 117.179 292.885 120.453 292.819 123.707C292.753 126.961 292.893 130.293 293.287 132.574L294.273 132.403L295.258 132.233C294.895 130.137 294.753 126.952 294.818 123.747C294.883 120.542 295.153 117.415 295.579 115.435L294.602 115.224ZM294.273 132.403L293.279 132.519C293.511 134.502 293.917 136.314 294.406 138.524L295.382 138.307L296.358 138.091C295.865 135.861 295.483 134.15 295.266 132.287L294.273 132.403ZM295.382 138.307L294.406 138.524C297.873 154.184 309.341 166.203 325.494 168.905L325.659 167.919L325.824 166.932C310.551 164.378 299.667 153.033 296.358 138.091L295.382 138.307ZM325.659 167.919L325.494 168.905C337.74 170.953 353.925 169.506 364.124 161.131L363.49 160.358L362.855 159.585C353.293 167.437 337.8 168.936 325.824 166.932L325.659 167.919ZM363.49 160.358L364.18 161.082C367.305 158.099 368.954 155.786 369.929 153.976C370.416 153.073 370.726 152.311 370.964 151.684C371.215 151.024 371.349 150.624 371.522 150.292C371.668 150.01 371.802 149.861 371.995 149.745C372.22 149.609 372.601 149.472 373.323 149.369C374.79 149.159 377.242 149.142 381.624 149.175L381.631 148.175L381.639 147.175C377.323 147.142 374.691 147.153 373.041 147.389C372.204 147.508 371.519 147.697 370.962 148.032C370.375 148.386 370.014 148.854 369.746 149.372C369.503 149.839 369.303 150.424 369.095 150.974C368.873 151.557 368.598 152.23 368.168 153.028C367.311 154.619 365.802 156.769 362.799 159.635L363.49 160.358ZM381.631 148.175L381.624 149.175C382.533 149.181 383.1 150.013 382.864 150.748L383.817 151.054L384.769 151.359C385.458 149.21 383.759 147.19 381.639 147.175L381.631 148.175ZM383.817 151.054L382.864 150.748C377.323 168.027 360.539 176.642 342.823 178.053L342.903 179.05L342.982 180.046C361.139 178.6 378.884 169.71 384.769 151.359L383.817 151.054ZM342.903 179.05L342.823 178.053C326.688 179.338 311.441 176.975 298.99 166.226L298.336 166.983L297.683 167.74C310.698 178.976 326.568 181.354 342.982 180.046L342.903 179.05ZM298.336 166.983L298.99 166.226C288.363 157.053 282.697 142.85 281.966 128.238C281.235 113.625 285.449 98.7402 294.403 88.2496L293.643 87.6004L292.882 86.9512C283.536 97.9004 279.218 113.316 279.969 128.338C280.72 143.361 286.551 158.13 297.683 167.74L298.336 166.983ZM293.643 87.6004L294.403 88.2501C304.036 76.9783 316.269 72.5314 332.139 71.6535L332.083 70.6551L332.028 69.6566C315.802 70.5541 302.977 75.1389 292.883 86.9507L293.643 87.6004ZM305.905 119.594H306.905C306.905 119.042 307.352 118.595 307.904 118.594L307.903 117.594L307.903 116.594C306.247 116.595 304.905 117.938 304.905 119.594H305.905ZM307.905 128.465L307.905 127.465C307.353 127.465 306.905 127.017 306.905 126.465H305.905H304.905C304.905 128.122 306.248 129.465 307.906 129.465L307.905 128.465Z" fill="#1C1D1F" mask="url(#path-1-outside-1_1217_10233)"/>
<path d="M49.6309 70.1006V70.1016L49.6113 125.724C49.606 135.989 49.57 146.248 49.6602 156.511C49.6733 158.008 49.7452 159.945 50.2451 161.611C50.7446 163.276 51.6316 164.553 53.2031 164.948C57.5909 166.051 61.996 165.236 66.2334 163.667C68.225 162.93 70.4662 164.419 70.4736 166.566C70.4825 169.164 70.5775 171.988 70.6094 174.139C70.6116 174.286 70.5898 174.43 70.5469 174.568C70.482 174.777 70.3478 175.045 70.0625 175.209C69.5692 175.492 68.6466 175.752 67.5898 175.987C66.5071 176.229 65.2067 176.459 63.9053 176.662C61.3081 177.067 58.6641 177.368 57.6729 177.421C52.3114 177.708 48.2825 177.211 45.2637 175.999C42.2268 174.78 40.2336 172.845 38.9424 170.318C37.6608 167.811 37.0821 164.743 36.8174 161.266C36.5527 157.788 36.599 153.846 36.5967 149.584L36.5986 128.268V62.1191L36.6055 40.8301C36.6073 37.6033 36.6832 33.9055 36.5986 30.5234C36.5582 28.9006 37.8462 27.5228 39.4883 27.5195L46.5615 27.5049C48.2907 27.5016 49.6336 29.014 49.584 30.6992C49.4734 34.452 49.6084 40.1258 49.6172 42.6787V42.6807L49.6309 70.1006Z" fill="#1C1D1F" stroke="#1C1D1F"/>
<path d="M107.698 72.5176C109.38 72.4877 110.767 73.8782 110.743 75.5566C110.701 78.6118 110.773 82.0142 110.771 84.8516L110.761 107.519L110.774 174.914C110.774 176.246 109.826 177.411 108.424 177.464C106.358 177.542 103.277 177.481 101.009 177.438C99.3828 177.408 98.0902 176.044 98.0959 174.432C98.1035 172.321 98.0492 170.087 98.0481 168.192L98.0442 150.621L98.0383 97.4229L98.011 81.0889C98.0091 80.03 97.9632 77.0775 98.0217 74.9775C98.0631 73.5017 99.3003 72.5094 100.7 72.5312C102.747 72.5635 105.538 72.556 107.698 72.5176Z" fill="#1C1D1F" stroke="#1C1D1F"/>
<circle cx="104.138" cy="45.1519" r="7.56988" fill="#1C1D1F" stroke="#1C1D1F"/>
<path d="M157.492 27.6162C159.107 27.66 160.447 29.0022 160.423 30.6465C160.354 35.2807 160.439 40.6694 160.437 45.0596L160.427 77.5137L160.429 98.8994C168.955 82.2595 184.373 70.4146 203.628 69.4785C211.99 69.0724 221.753 70.0174 229.617 72.8311H229.619C259.203 83.505 271.451 118.621 261.139 144.773C254.956 160.454 244.981 171.271 232.636 176.753C220.292 182.235 205.637 182.357 190.141 176.762L190.132 176.759C176.917 171.704 166.744 163.828 160.436 153.857L160.44 174.994C160.44 176.225 159.614 177.354 158.283 177.437C156.203 177.565 152.979 177.474 150.644 177.411C149.035 177.368 147.743 176.022 147.756 174.415C147.783 171.144 147.715 167.394 147.714 164.389V135.821L147.715 135.819C147.715 135.818 147.715 135.816 147.715 135.814C147.715 135.811 147.716 135.806 147.716 135.801C147.717 135.79 147.717 135.775 147.719 135.758C147.722 135.722 147.727 135.673 147.736 135.612C147.752 135.492 147.781 135.325 147.833 135.131C147.937 134.745 148.135 134.233 148.518 133.766C148.682 133.565 148.908 133.419 149.144 133.309C149.384 133.197 149.665 133.106 149.972 133.032C150.587 132.884 151.359 132.787 152.226 132.722C153.962 132.591 156.159 132.582 158.405 132.582C159.508 132.582 160.62 132.55 161.651 132.621C162.689 132.693 163.696 132.871 164.614 133.316C166.491 134.228 167.821 136.166 168.496 139.995C169.134 143.611 172.177 149.01 177.083 154.106C181.975 159.189 188.663 163.911 196.51 166.217C218.743 172.75 242.258 159.698 249.015 137.043C255.773 114.391 243.205 90.7465 220.974 84.2217C198.747 77.6991 175.241 90.7502 168.484 113.398C168.197 114.358 168.19 114.38 168.117 114.574C168.056 114.737 167.929 115.075 167.387 116.715C167.386 116.718 167.386 116.721 167.385 116.724C167.379 116.747 167.372 116.78 167.361 116.82C167.339 116.901 167.306 117.012 167.257 117.145C167.161 117.408 167.001 117.762 166.751 118.119C166.244 118.845 165.355 119.583 163.905 119.583H154.37C154.342 119.583 154.301 119.584 154.249 119.584C154.145 119.584 153.996 119.583 153.813 119.578C153.447 119.569 152.943 119.545 152.392 119.485C151.842 119.426 151.234 119.331 150.664 119.178C150.101 119.026 149.538 118.808 149.105 118.482C148.646 118.138 148.345 117.647 148.145 117.147C147.944 116.646 147.831 116.103 147.768 115.614C147.704 115.123 147.689 114.671 147.689 114.342C147.689 114.177 147.693 114.041 147.698 113.946C147.7 113.899 147.701 113.861 147.702 113.835L147.704 113.805V63.0586L147.677 39.6709C147.675 38.0237 147.622 33.2423 147.704 30.2363C147.747 28.6889 149.064 27.6084 150.545 27.6387C152.563 27.6801 155.242 27.669 157.335 27.6162H157.492Z" fill="#1C1D1F" stroke="#1C1D1F"/>
<path d="M453.81 69.4443C461.992 69.1332 471.393 70.1054 479.011 72.8311L479.012 72.832C508.591 83.5042 521.779 117.627 510.872 146.26C504.816 162.156 493.331 171.244 483.362 175.787C478.38 178.057 473.762 179.2 470.369 179.486C468.678 179.629 467.258 179.562 466.241 179.296C465.734 179.163 465.29 178.971 464.964 178.7C464.626 178.419 464.405 178.041 464.405 177.582V169.082C464.405 168.862 464.504 168.688 464.611 168.567C464.714 168.451 464.845 168.361 464.97 168.29C465.222 168.147 465.561 168.021 465.943 167.901C466.711 167.661 467.798 167.406 469.034 167.097C471.531 166.472 474.734 165.608 477.681 164.135C480.661 162.645 484.48 160.549 488.361 156.606C492.242 152.663 496.206 146.852 499.434 137.912C507.35 115.99 492.633 90.7562 470.368 84.2217C448.141 77.6991 424.635 90.7502 417.877 113.398C411.121 136.046 423.679 159.685 445.903 166.216L447.71 166.75C448.388 166.958 449.107 167.194 449.762 167.449C450.416 167.704 451.037 167.988 451.502 168.299C451.735 168.454 451.95 168.629 452.111 168.828C452.272 169.027 452.405 169.282 452.405 169.582V177.582C452.405 178.054 452.202 178.438 451.849 178.704C451.522 178.951 451.092 179.078 450.641 179.139C449.737 179.261 448.532 179.148 447.251 178.921C444.673 178.463 441.593 177.505 439.535 176.762L439.526 176.759C424.417 170.98 413.28 161.513 407.356 149.445C401.43 137.374 400.748 122.758 406.441 106.74L406.792 105.775C414.317 85.5993 431.204 70.5391 453.022 69.4785L453.81 69.4443Z" fill="#1C1D1F" stroke="#1C1D1F"/>
</svg>
